<?xml version="1.0" encoding="utf-8"?>
<!-- Generator: Adobe Illustrator 25.1.0, SVG Export Plug-In . SVG Version: 6.00 Build 0)  -->
<svg  width="18" height="18" version="1.1" xmlns="http://www.w3.org/2000/svg" xmlns:xlink="http://www.w3.org/1999/xlink" x="0px" y="0px"
	 viewBox="0 0 100 100" style="enable-background:new 0 0 100 100;" xml:space="preserve">
<path fill="#fff" d="M16.16,33.61c5.78,0,10.61-4.72,10.61-10.61V10.61C26.77,4.83,22.05,0,16.16,0C10.38,0,5.54,4.72,5.54,10.61V23
	C5.54,28.89,10.26,33.61,16.16,33.61z M78.18,32.9c-5.9,0-10.61,4.72-10.61,10.61v15.33c-0.24,10.97-9.32,19.93-20.4,19.93
	c-11.32,0-20.4-9.2-20.4-20.4c0-0.24,0-0.35,0-0.59l0,0v-2.48c0-5.9-4.72-10.61-10.61-10.61S5.54,49.41,5.54,55.31v2.48l0,0
	c0,0.24,0,0.35,0,0.59c0,23,18.75,41.63,41.63,41.63c23,0,41.63-18.75,41.63-41.63V43.63C88.8,37.62,84.08,32.9,78.18,32.9z
	 M83.84,0H71.46c-5.78,0-10.61,4.72-10.61,10.61c0,5.78,4.72,10.61,10.61,10.61h12.38c5.78,0,10.61-4.72,10.61-10.61
	C94.46,4.83,89.74,0,83.84,0z"/>
</svg>