<svg xmlns="http://www.w3.org/2000/svg" width="16" height="16" viewBox="0 0 196 196">
  <defs>
    <style>
      .cls-1 {
        fill: #fff;
        fill-rule: evenodd;
      }
    </style>
  </defs>
  <path id="Burst_1" data-name="Burst 1" class="cls-1" d="M20.16,2.123c12.288-.206,16.721.523,22.817,6.043l2.852,1.727v1.727l1.9,0.863v1.727h0.951c2.343,4.771,1.9,12.2,1.9,18.992,0,9.12,1,21.1-2.852,26.762l-1.9.863v1.727l-3.8,2.59v0.863h-1.9l-0.951,1.727h-1.9V68.6h-1.9V69.46H32.519v0.863c-3.082.885-13.32-.108-15.211-0.863V68.6h-1.9V67.733C2.345,61.021,2.1,53.875,2.1,35.791,2.1,28.749,1.932,21.6,4,16.8v-2.59l1.9-.863V11.619l1.9-.863V9.029H8.751l1.9-2.59h1.9L13.5,4.713h1.9V3.85l4.754-.863V2.123Zm119.79,0h40.88V2.986h1.9V3.85h2.853q0.474,0.863.95,1.727h1.9l1.9,2.59,3.8,2.59v1.727l1.9,0.863v2.59h0.951c1.4,3.228,1.538,12.342,0,15.539H196.04V33.2h-0.95l-0.951,3.453-2.852,1.727-2.852,3.453c-7.338,4.457-20.11,3.453-32.324,3.453H140.9V44.424h-2.852V43.561l-5.7-1.727-3.8-4.316-1.9-.863V34.928l-1.9-.863v-2.59h-0.95V29.748h-0.951V17.662h0.951v-2.59h0.95l0.951-3.453,1.9-.863,5.705-6.043h1.9V3.85l4.754-.863V2.123Zm19.014,63.884c12.688,0.38,21.608,6.633,24.718,15.539v26.762c0,8.82.309,17.708-1.9,24.172V136.8h-0.951v3.453h-0.951q-0.475,2.589-.95,5.179h-0.951l-0.951,4.317h-0.951q-0.474,1.726-.95,3.453h-0.951v1.727l-1.9.863-1.9,5.18-1.9.863v1.727l-1.9.863q-0.474,1.294-.95,2.59l-5.7,4.316v1.727l-3.8,2.59v0.863h-1.9l-4.753,5.18-2.852.863-0.951,1.727h-1.9L142.8,186l-5.7,1.727-0.95,1.726h-1.9v0.864l-3.8.863v0.863h-2.853v0.864h-1.9v0.863h-3.8v0.863h-1.9V195.5h-3.8v0.864h-3.8v0.863h-5.7v0.863H94.315c-12.586,0-20.818-1.174-29.472-4.316H61.991v-0.863h-1.9v-0.864H57.237v-0.863l-5.7-1.727v-0.863l-3.8-.863L46.779,186h-1.9v-0.863l-2.852-.863-0.951-1.727h-1.9l-3.8-4.316h-1.9l-5.7-6.043-2.852-1.727v-1.727l-3.8-2.59-0.951-2.589-1.9-.864L7.8,143.7V140.25H6.85v-2.59H5.9v-3.453H4.948L4,122.121H3.047v-6.043c-0.036-11.4,1.267-15.045,7.606-20.719l1.9-2.59,5.7-1.727V90.179c3.828-1.492,14.572-1.295,17.113.863,6.6,1.576,12.225,8.867,14.261,14.676v17.266h0.951v3.453h0.951l0.951,5.18h0.951v1.726h0.951l1.9,5.18,2.852,1.727v1.726l4.754,3.453,1.9,2.59h1.9l0.951,1.727h1.9l0.951,1.727h1.9v0.863l3.8,0.863v0.863h2.852v0.864l10.458,0.863v0.863h6.655v-0.863l9.507-.863v-0.864l5.7-.863v-0.863l3.8-.863,0.951-1.727h1.9l2.852-3.453h1.9v-0.864l2.852-1.726v-1.727l3.8-2.59q0.474-1.726.95-3.453l1.9-.863v-2.59h0.95v-1.726H135.2l0.951-5.18h0.95v-6.907c2.079-6.715.95-17.7,0.951-25.9,0-4.79-.584-11.339,1.9-13.813,1.189-4.277,7.306-9.6,11.408-11.223C153.841,66.749,157.069,67.528,158.963,66.007Z" transform="translate(-2.094 -2.094)"/>
</svg>
